<?xml version="1.0" encoding="utf-8"?><svg viewBox="0 0 512 512" xmlns="http://www.w3.org/2000/svg" xmlns:xlink="http://www.w3.org/1999/xlink"><style>:root>svg{display:none}:root>svg:target{display:block}</style><svg viewBox="0 0 512 512" id="afternoon-tea" xmlns="http://www.w3.org/2000/svg"><path d="M32 400h352c8.837 0 16 7.163 16 16s-7.163 16-16 16H32c-8.837 0-16-7.163-16-16s7.163-16 16-16z" fill="#555a6e"/><path d="M77.333 432h261.333l-25.473 23.514A32 32 0 01291.488 464H124.511a32.002 32.002 0 01-21.705-8.486z" fill="#463c4b"/><path d="M32 176h352c8.837 0 16 7.163 16 16s-7.163 16-16 16H32c-8.837 0-16-7.163-16-16s7.163-16 16-16z" fill="#555a6e"/><path d="M77.333 208h261.333l-25.473 23.514A32 32 0 01291.488 240H124.511a32.002 32.002 0 01-21.705-8.486zM192 240h32v160h-32z" fill="#463c4b"/><path d="M192 256h16v144h-16z" fill="#555a6e"/><path d="M192 64h32v112h-32z" fill="#463c4b"/><path d="M192 96h16v80h-16z" fill="#555a6e"/><circle cx="208" cy="48" fill="#463c4b" r="32"/><path d="M176 48h16c8.837 0 16-7.163 16-16V16c-17.673 0-32 14.327-32 32z" fill="#555a6e"/><path d="M128 400H64c-17.673 0-32-14.327-32-32 0-17.673 14.327-32 32-32h64c17.673 0 32 14.327 32 32 0 17.673-14.327 32-32 32z" fill="#5faa46"/><path d="M80 400H64c-17.673 0-32-14.327-32-32 0-17.673 14.327-32 32-32h16c17.673 0 32 14.327 32 32 0 17.673-14.327 32-32 32z" fill="#afd763"/><path d="M240 400h-64c-17.673 0-32-14.327-32-32 0-17.673 14.327-32 32-32h64c17.673 0 32 14.327 32 32 0 17.673-14.327 32-32 32z" fill="#ff6955"/><path d="M192 400h-16c-17.673 0-32-14.327-32-32 0-17.673 14.327-32 32-32h16c17.673 0 32 14.327 32 32 0 17.673-14.327 32-32 32z" fill="#ff8773"/><path d="M352 176h-64c-17.673 0-32-14.327-32-32 0-17.673 14.327-32 32-32h64c17.673 0 32 14.327 32 32 0 17.673-14.327 32-32 32z" fill="#5faa46"/><path d="M304 176h-16c-17.673 0-32-14.327-32-32 0-17.673 14.327-32 32-32h16c17.673 0 32 14.327 32 32 0 17.673-14.327 32-32 32z" fill="#afd763"/><g><path d="M128 176H64c-17.673 0-32-14.327-32-32 0-17.673 14.327-32 32-32h64c17.673 0 32 14.327 32 32 0 17.673-14.327 32-32 32z" fill="#faa019"/><path d="M80 176H64c-17.673 0-32-14.327-32-32 0-17.673 14.327-32 32-32h16c17.673 0 32 14.327 32 32 0 17.673-14.327 32-32 32z" fill="#ffd205"/></g><g><path d="M240 176h-64c-17.673 0-32-14.327-32-32 0-17.673 14.327-32 32-32h64c17.673 0 32 14.327 32 32 0 17.673-14.327 32-32 32z" fill="#ff6955"/><path d="M192 176h-16c-17.673 0-32-14.327-32-32 0-17.673 14.327-32 32-32h16c17.673 0 32 14.327 32 32 0 17.673-14.327 32-32 32z" fill="#ff8773"/></g><g><path d="M464 480H112c-8.837 0-16-7.163-16-16s7.163-16 16-16h352c8.837 0 16 7.163 16 16s-7.163 16-16 16z" fill="#a5c3dc"/><path d="M288 480H112c-8.837 0-16-7.163-16-16s7.163-16 16-16h176c8.837 0 16 7.163 16 16s-7.163 16-16 16z" fill="#d7e6f0"/><path d="M432 496H144c-8.837 0-16-7.163-16-16h320c0 8.837-7.163 16-16 16zM376 448H200c-17.673 0-32-14.327-32-32V304c0-8.837 7.163-16 16-16h208c8.837 0 16 7.163 16 16v112c0 17.673-14.327 32-32 32z" fill="#a5c3dc"/><path d="M392 288H184c-8.837 0-16 7.164-16 16v112h120V304h120c0-8.836-7.163-16-16-16z" fill="#d7e6f0"/><g><path d="M408 424a8 8 0 01-8-8c0-13.233 10.767-24 24-24h20c19.851 0 36-16.149 36-36s-16.149-36-36-36h-36a8 8 0 010-16h36c28.673 0 52 23.327 52 52s-23.327 52-52 52h-20c-4.411 0-8 3.589-8 8a8 8 0 01-8 8z" fill="#a5c3dc"/></g><g><path d="M288 304h120v16H288z" fill="#f06423"/></g><g><path d="M288 320H168v-16h120z" fill="#faa019"/></g></g></svg><svg viewBox="0 0 512 512" id="bibimbap" xmlns="http://www.w3.org/2000/svg"><circle cx="256" cy="256" fill="#555a6e" r="240"/><circle cx="264" cy="264" fill="#463c4b" r="216"/><path d="M464 256H256v208c114.875 0 208-93.125 208-208z" fill="#a5c3dc"/><path d="M48 256h208v208c-114.875 0-208-93.125-208-208z" fill="#f06423"/><circle cx="237.333" cy="384" fill="#faa019" r="32"/><circle cx="160" cy="352" fill="#faa019" r="32"/><circle cx="162.667" cy="410.667" fill="#faa019" r="32"/><circle cx="237.333" cy="440" fill="#faa019" r="24"/><circle cx="98.667" cy="362.667" fill="#faa019" r="24"/><circle cx="114.667" cy="312" fill="#faa019" r="24"/><circle cx="80" cy="280" fill="#faa019" r="32"/><circle cx="190.667" cy="400" fill="#ffbe28" r="16"/><circle cx="200" cy="434.667" fill="#faa019" r="16"/><circle cx="248" cy="418.667" fill="#faa019" r="16"/><circle cx="128" cy="400" fill="#ffbe28" r="16"/><circle cx="141.333" cy="274.667" fill="#ffbe28" r="16"/><circle cx="144" cy="368" fill="#faa019" r="16"/><circle cx="96" cy="336" fill="#ffbe28" r="16"/><circle cx="240" cy="384" fill="#ffbe28" r="16"/><circle cx="122.667" cy="304" fill="#faa019" r="16"/><circle cx="64" cy="264" fill="#ffbe28" r="16"/><circle cx="72" cy="312" fill="#ffbe28" r="8"/><circle cx="136" cy="328" fill="#ffbe28" r="8"/><circle cx="184" cy="360" fill="#ffbe28" r="8"/><circle cx="248" cy="440" fill="#ffbe28" r="8"/><circle cx="85.333" cy="280" fill="#faa019" r="16"/><circle cx="114.667" cy="354.667" fill="#faa019" r="16"/><circle cx="173.333" cy="394.667" fill="#faa019" r="16"/><circle cx="122.667" cy="261.333" fill="#faa019" r="16"/><path d="M464 256H256V48c114.875 0 208 93.125 208 208z" fill="#a55023"/><circle cx="282.667" cy="128" fill="#d26e28" r="32"/><circle cx="352" cy="160" fill="#d26e28" r="32"/><circle cx="352" cy="96" fill="#d26e28" r="32"/><circle cx="277.333" cy="72" fill="#d26e28" r="24"/><circle cx="408" cy="152" fill="#d26e28" r="24"/><circle cx="397.333" cy="200" fill="#d26e28" r="24"/><circle cx="432" cy="232" fill="#d26e28" r="32"/><circle cx="321.333" cy="112" fill="#f28a39" r="16"/><circle cx="258.667" cy="98.667" fill="#f28a39" r="16"/><circle cx="384" cy="112" fill="#f28a39" r="16"/><circle cx="368" cy="144" fill="#f28a39" r="16"/><circle cx="416" cy="176" fill="#f28a39" r="16"/><circle cx="272" cy="128" fill="#f28a39" r="16"/><circle cx="400" cy="248" fill="#f28a39" r="16"/><circle cx="448" cy="240" fill="#f28a39" r="16"/><circle cx="440" cy="200" fill="#f28a39" r="8"/><circle cx="376" cy="184" fill="#f28a39" r="8"/><circle cx="328" cy="152" fill="#f28a39" r="8"/><circle cx="264" cy="72" fill="#f28a39" r="8"/><path d="M256 48v208H48c0-114.875 93.125-208 208-208z" fill="#4b8c41"/><circle cx="128" cy="237.333" fill="#69a041" r="32"/><circle cx="160" cy="160" fill="#69a041" r="32"/><circle cx="101.333" cy="162.667" fill="#69a041" r="32"/><circle cx="72" cy="237.333" fill="#69a041" r="24"/><circle cx="149.333" cy="98.667" fill="#69a041" r="24"/><circle cx="200" cy="114.667" fill="#69a041" r="24"/><circle cx="232" cy="80" fill="#69a041" r="32"/><g><circle cx="112" cy="190.667" fill="#91b945" r="16"/></g><g><circle cx="77.333" cy="200" fill="#69a041" r="16"/></g><g><circle cx="93.333" cy="248" fill="#69a041" r="16"/></g><g><circle cx="112" cy="128" fill="#91b945" r="16"/></g><g><circle cx="237.333" cy="141.333" fill="#91b945" r="16"/></g><g><circle cx="144" cy="144" fill="#69a041" r="16"/></g><g><circle cx="176" cy="96" fill="#91b945" r="16"/></g><g><circle cx="128" cy="240" fill="#91b945" r="16"/></g><g><circle cx="208" cy="122.667" fill="#69a041" r="16"/></g><g><circle cx="248" cy="64" fill="#91b945" r="16"/></g><g><circle cx="200" cy="72" fill="#91b945" r="8"/></g><g><circle cx="184" cy="136" fill="#91b945" r="8"/></g><g><circle cx="152" cy="184" fill="#91b945" r="8"/></g><g><circle cx="72" cy="248" fill="#91b945" r="8"/></g><g><circle cx="272" cy="272" fill="#d7e6f0" r="128"/><path d="M152 280a8 8 0 008-8c0-61.757 50.243-112 112-112a8 8 0 000-16c-70.692 0-128 57.308-128 128a8 8 0 008 8z" fill="#fff"/><circle cx="256" cy="256" fill="#faa019" r="64"/><path d="M200 264a8 8 0 008-8c0-26.467 21.533-48 48-48a8 8 0 000-16c-35.346 0-64 28.654-64 64a8 8 0 008 8z" fill="#ffd205"/></g><g><circle cx="232" cy="85.333" fill="#69a041" r="16"/></g><g><circle cx="157.333" cy="114.667" fill="#69a041" r="16"/></g><g><circle cx="117.333" cy="173.333" fill="#69a041" r="16"/></g><g><circle cx="250.667" cy="122.667" fill="#69a041" r="16"/></g><g><circle cx="440" cy="296" fill="#d7e6f0" r="8"/></g><g><circle cx="424" cy="328" fill="#d7e6f0" r="8"/></g><g><circle cx="280" cy="424" fill="#d7e6f0" r="8"/></g><g><circle cx="360" cy="408" fill="#d7e6f0" r="8"/></g><g><circle cx="416" cy="288" fill="#d7e6f0" r="8"/></g><g><circle cx="332.134" cy="180.006" fill="#5faa46" r="4"/><circle cx="297.961" cy="201.59" fill="#5faa46" r="4"/><circle cx="264.495" cy="152.321" fill="#5faa46" r="4"/><circle cx="211.596" cy="195.29" fill="#5faa46" r="4"/><circle cx="186.084" cy="180.481" fill="#5faa46" r="4"/><circle cx="243.207" cy="156.712" fill="#5faa46" r="4"/><circle cx="188.598" cy="288.893" fill="#5faa46" r="4"/><circle cx="153.334" cy="275.279" fill="#5faa46" r="4"/><circle cx="179.715" cy="221.138" fill="#5faa46" r="4"/><circle cx="316.549" cy="301.304" fill="#5faa46" r="4"/><circle cx="266.125" cy="273.893" fill="#5faa46" r="4"/><circle cx="274.378" cy="233.482" fill="#5faa46" r="4"/><circle cx="364.54" cy="282.111" fill="#5faa46" r="4"/><circle cx="312.791" cy="246.598" fill="#5faa46" r="4"/><circle cx="356.893" cy="226.624" fill="#5faa46" r="4"/><circle cx="204.415" cy="353.332" fill="#5faa46" r="4"/><circle cx="180.188" cy="338.077" fill="#5faa46" r="4"/><circle cx="226.451" cy="280.869" fill="#5faa46" r="4"/><circle cx="282.782" cy="350.555" fill="#5faa46" r="4"/><circle cx="289.557" cy="325.23" fill="#5faa46" r="4"/><circle cx="330.461" cy="330.577" fill="#5faa46" r="4"/></g></svg><svg viewBox="0 0 512 512" id="curry" xmlns="http://www.w3.org/2000/svg"><circle cx="256" cy="256" fill="#a5c3dc" r="240"/><circle cx="256" cy="256" fill="#8caac8" r="200"/><path d="M433.918 263.768a8.002 8.002 0 000-15.536 8.003 8.003 0 00-1.354-15.477 8.003 8.003 0 00-2.698-15.3 8.003 8.003 0 00-4.021-15.007 8.003 8.003 0 00-5.313-14.599 8.003 8.003 0 00-6.565-14.081 8.002 8.002 0 00-7.768-13.455 8.003 8.003 0 00-8.911-12.727 8.002 8.002 0 00-9.986-11.901 8.002 8.002 0 00-10.986-10.986 8.003 8.003 0 00-11.901-9.986 8.003 8.003 0 00-12.727-8.911 8.001 8.001 0 00-13.455-7.768 8.001 8.001 0 00-14.081-6.565 8.002 8.002 0 00-14.599-5.313 8.002 8.002 0 00-15.006-4.021 8.003 8.003 0 00-15.3-2.698 8.003 8.003 0 00-15.477-1.354 8.002 8.002 0 00-15.538-.001 8.002 8.002 0 00-15.477 1.354 8.003 8.003 0 00-15.3 2.698 8.003 8.003 0 00-15.006 4.021 8.003 8.003 0 00-14.599 5.313 8.003 8.003 0 00-14.081 6.565 8.002 8.002 0 00-13.455 7.768 8.003 8.003 0 00-12.727 8.911 8.002 8.002 0 00-11.901 9.986 8.002 8.002 0 00-10.986 10.986 8.003 8.003 0 00-9.986 11.901 8.003 8.003 0 00-8.911 12.727 8.001 8.001 0 00-7.768 13.455 8.001 8.001 0 00-6.565 14.081 8.002 8.002 0 00-5.313 14.599 8.004 8.004 0 00-7.886 5.929 8.004 8.004 0 003.865 9.078 8.003 8.003 0 00-2.698 15.3 8.003 8.003 0 00-1.354 15.477 8.002 8.002 0 00-.002 15.537 8.003 8.003 0 001.354 15.477 8.002 8.002 0 002.698 15.3 8.003 8.003 0 004.021 15.006 8.003 8.003 0 005.313 14.599 8.003 8.003 0 006.566 14.081 8.002 8.002 0 007.768 13.455 8.003 8.003 0 008.911 12.727 8.002 8.002 0 009.986 11.901 8.002 8.002 0 0010.986 10.986 8.002 8.002 0 0011.901 9.987 8.003 8.003 0 0012.727 8.911 8.001 8.001 0 0013.455 7.768 8.001 8.001 0 0014.081 6.565 8.002 8.002 0 0014.599 5.313 8.002 8.002 0 0015.006 4.021 8.003 8.003 0 0015.3 2.698 8.003 8.003 0 0015.477 1.354 8.002 8.002 0 0015.537.001 8.003 8.003 0 0015.477-1.354 8.003 8.003 0 0015.3-2.698 8.003 8.003 0 0015.006-4.021 8.003 8.003 0 0014.599-5.313 8.003 8.003 0 0014.081-6.565 8.002 8.002 0 0013.455-7.768 8.003 8.003 0 0012.727-8.911 8.002 8.002 0 0011.901-9.987 8.002 8.002 0 0010.986-10.986 8.003 8.003 0 009.986-11.901 8.003 8.003 0 008.911-12.727 8.001 8.001 0 007.768-13.455 8.001 8.001 0 006.566-14.081 8.002 8.002 0 005.313-14.599 8.002 8.002 0 004.021-15.006 8.002 8.002 0 002.698-15.3 8.004 8.004 0 001.355-15.478z" fill="#d7e6f0"/><circle cx="386.667" cy="309.333" fill="#a5c3dc" r="8"/><circle cx="250.667" cy="381.333" fill="#a5c3dc" r="8"/><circle cx="370.667" cy="341.333" fill="#a5c3dc" r="8"/><circle cx="312" cy="354.667" fill="#a5c3dc" r="8"/><circle cx="362.667" cy="301.333" fill="#a5c3dc" r="8"/><circle cx="330.667" cy="373.333" fill="#a5c3dc" r="8"/><circle cx="181.333" cy="376" fill="#a5c3dc" r="8"/><circle cx="258.667" cy="317.333" fill="#a5c3dc" r="8"/><circle cx="336" cy="280" fill="#a5c3dc" r="8"/><circle cx="378.667" cy="221.333" fill="#a5c3dc" r="8"/><path d="M406.752 150.503l.018-.018a185.175 185.175 0 00-20.662-24.593c-71.856-71.856-188.359-71.856-260.215 0s-71.856 188.359 0 260.215a185.099 185.099 0 0024.593 20.662l.018-.018a8 8 0 0011.131-11.131l1.142-1.142a7.977 7.977 0 0011.097-11.097l1.174-1.174a7.956 7.956 0 0011.068-11.068l1.201-1.201a7.94 7.94 0 0011.042-11.041l1.225-1.225a7.924 7.924 0 0011.019-11.019l1.247-1.247a7.91 7.91 0 0010.999-10.999l1.264-1.264a7.9 7.9 0 0010.985-10.984l1.277-1.278a7.891 7.891 0 0010.972-10.972l1.289-1.289a7.885 7.885 0 0010.963-10.963l1.295-1.296a7.882 7.882 0 0010.958-10.958l1.299-1.299a7.88 7.88 0 0010.956-10.956l1.299-1.299a7.882 7.882 0 0010.958-10.958l1.296-1.295a7.885 7.885 0 0010.963-10.963l1.288-1.289a7.892 7.892 0 0010.972-10.972l1.278-1.277a7.902 7.902 0 009.654-.546 7.897 7.897 0 001.33-10.438l1.264-1.264a7.91 7.91 0 0010.999-10.999l1.247-1.247a7.922 7.922 0 0011.019-11.019l1.225-1.225a7.938 7.938 0 0011.041-11.042l1.201-1.201a7.958 7.958 0 0011.068-11.068l1.174-1.174a7.978 7.978 0 0011.097-11.097l1.142-1.142a8 8 0 0011.13-11.13z" fill="#f06423"/><path d="M80.082 264a8 8 0 01-8-8c0-49.201 19.11-95.407 53.811-130.107C160.646 91.139 206.852 72 256 72a8 8 0 010 16c-44.874 0-87.063 17.475-118.793 49.206C105.528 168.885 88.082 211.073 88.082 256a8 8 0 01-8 8z" fill="#faa019"/><path d="M234.343 160.971l-11.314-11.314a8 8 0 010-11.314l11.314-11.314a8 8 0 0111.314 0l11.314 11.314a8 8 0 010 11.314l-11.314 11.314a8 8 0 01-11.314 0z" fill="#ffd205"/><path d="M245.657 149.657a8 8 0 00-11.314 0l-5.657 5.657 5.657 5.657a8 8 0 0011.314 0l5.657-5.657z" fill="#faa019"/><path d="M272.324 234.99l-11.314-11.314a8 8 0 010-11.314l11.314-11.314a8 8 0 0111.314 0l11.314 11.314a8 8 0 010 11.314l-11.314 11.314a8 8 0 01-11.314 0z" fill="#ffd205"/><path d="M283.637 223.676a8 8 0 00-11.314 0l-5.657 5.657 5.657 5.657a8 8 0 0011.314 0l5.657-5.657z" fill="#faa019"/><path d="M130.99 254.951l-11.314-11.314a8 8 0 010-11.314l11.314-11.314a8 8 0 0111.314 0l11.314 11.314a8 8 0 010 11.314l-11.314 11.314a8 8 0 01-11.314 0z" fill="#ffd205"/><path d="M142.304 243.637a8 8 0 00-11.314 0l-5.657 5.657 5.657 5.657a8 8 0 0011.314 0l5.657-5.657zM200 226.667h-16a8 8 0 01-8-8v-16a8 8 0 018-8h16a8 8 0 018 8v16a8 8 0 01-8 8z" fill="#faa019"/><path d="M200 210.667a8 8 0 00-8 8v8h8a8 8 0 008-8v-8z" fill="#faa019"/><path d="M205.01 288.971l-11.314-11.314a8 8 0 010-11.314l11.314-11.314a8 8 0 0111.314 0l11.314 11.314a8 8 0 010 11.314l-11.314 11.314a8 8 0 01-11.314 0z" fill="#ffd205"/><path d="M216.324 277.657a8 8 0 00-11.314 0l-5.657 5.657 5.657 5.657a8 8 0 0011.314 0l5.657-5.657zM322.667 197.333h-16a8 8 0 01-8-8v-16a8 8 0 018-8h16a8 8 0 018 8v16a8 8 0 01-8 8z" fill="#faa019"/><path d="M322.667 181.333a8 8 0 00-8 8v8h8a8 8 0 008-8v-8zM186.667 165.333h-16a8 8 0 01-8-8v-16a8 8 0 018-8h16a8 8 0 018 8v16a8 8 0 01-8 8z" fill="#faa019"/><path d="M186.667 149.333a8 8 0 00-8 8v8h8a8 8 0 008-8v-8z" fill="#faa019"/><g><path d="M312 130.667h-16a8 8 0 01-8-8v-16a8 8 0 018-8h16a8 8 0 018 8v16a8 8 0 01-8 8z" fill="#faa019"/><path d="M312 114.667a8 8 0 00-8 8v8h8a8 8 0 008-8v-8z" fill="#faa019"/></g><g><path d="M133.01 320.971l-11.314-11.314a8 8 0 010-11.314l11.314-11.314a8 8 0 0111.314 0l11.314 11.314a8 8 0 010 11.314l-11.314 11.314a8 8 0 01-11.314 0z" fill="#faa019"/><path d="M144.324 309.657a8 8 0 00-11.314 0l-5.657 5.657 5.657 5.657a8 8 0 0011.314 0l5.657-5.657z" fill="#faa019"/></g><g><path d="M313.333 122.667h-4c-13.255 0-24 10.745-24 24v4a4 4 0 004 4h4c13.255 0 24-10.745 24-24v-4a4 4 0 00-4-4z" fill="#91c83c"/></g><g><path d="M182.667 309.333h-4c-13.255 0-24 10.745-24 24v4a4 4 0 004 4h4c13.255 0 24-10.745 24-24v-4a4 4 0 00-4-4z" fill="#91c83c"/></g><g><path d="M145.333 168h-4c-13.255 0-24 10.745-24 24v4a4 4 0 004 4h4c13.255 0 24-10.745 24-24v-4a4 4 0 00-4-4z" fill="#91c83c"/></g><g><path d="M242.667 228v-4c0-13.255-10.745-24-24-24h-4a4 4 0 00-4 4v4c0 13.255 10.745 24 24 24h4a4 4 0 004-4z" fill="#5faa46"/></g><g><path d="M125.333 300v-4c0-13.255-10.745-24-24-24h-4a4 4 0 00-4 4v4c0 13.255 10.745 24 24 24h4a4 4 0 004-4z" fill="#5faa46"/></g></svg></svg>