<?xml version="1.0" encoding="utf-8"?><svg viewBox="0 0 512 512" xmlns="http://www.w3.org/2000/svg" xmlns:xlink="http://www.w3.org/1999/xlink"><style>:root>svg{display:none}:root>svg:target{display:block}</style><svg viewBox="0 0 512 512" id="avocado" xmlns="http://www.w3.org/2000/svg"><path d="M507.133 235.005c-24.988-24.047-74.971-40.702-132.685-41.161-13.184-.105-25.971.651-38.167 2.147a101.83 101.83 0 0117.036 22.25 102.701 102.701 0 016.121 12.783 46.355 46.355 0 0026.97 26.363 130.576 130.576 0 0133.004 18.004c37.871-5.712 69.309-18.749 87.687-35.879a3.107 3.107 0 00.034-4.507z" fill="#026841"/><path d="M361.773 236a46.36 46.36 0 0024.634 21.387 130.576 130.576 0 0133.004 18.004c37.871-5.712 69.309-18.749 87.687-35.879a3.084 3.084 0 00.967-2.468z" fill="#017b4e"/><path d="M353.316 218.241a102.672 102.672 0 015.062 10.241c10.009-7.525 19.928-16.032 29.52-25.473 41.135-40.485 65.449-87.224 66.666-121.882a3.105 3.105 0 00-3.161-3.212c-34.673.665-81.793 24.232-122.928 64.717-10.197 10.036-19.356 20.456-27.39 30.98 21.512 7.823 40.25 23.49 52.231 44.629z" fill="#02905d"/><path d="M353.316 218.241a102.763 102.763 0 015.062 10.24c10.009-7.525 19.928-16.032 29.52-25.473 41.135-40.485 65.449-87.224 66.666-121.882a3.08 3.08 0 00-1.061-2.428L335.406 195.122a101.814 101.814 0 0117.91 23.119z" fill="#09a76d"/><path d="M269.661 168.027c19.571 0 38.478 6.369 54.357 17.659 3.045-16.016 4.775-33.317 4.919-51.375.459-57.715-15.397-107.956-39.044-133.324a3.104 3.104 0 00-4.506-.036c-24.047 24.988-40.702 74.971-41.161 132.685-.103 12.978.625 25.573 2.075 37.598a87.022 87.022 0 0123.36-3.207z" fill="#026841"/><path d="M324.018 185.686c3.045-16.016 4.775-33.317 4.919-51.375.459-57.715-15.397-107.956-39.044-133.324a3.083 3.083 0 00-2.468-.967l-1.21 169.54c13.574 2.513 26.461 8.061 37.803 16.126z" fill="#017b4e"/><path d="M226.718 444.32c-15.048-26.766-20.218-58.108-14.559-88.251 2.411-12.838-.79-26.178-8.781-36.597a102.77 102.77 0 01-7.821-11.815c-12.679-22.37-16.387-48.053-10.439-72.317 5.942-24.243 20.812-44.167 41.872-56.104a85.76 85.76 0 0114.55-6.528c-41.57-16.478-91.295 1.041-116.129 43.035a103.321 103.321 0 00-6.416 12.789c-4.933 11.818-14.682 21.06-26.774 25.276-28.248 9.851-53.315 29.307-69.819 56.995-36.853 61.828-16.878 142.678 44.563 180.174 57.319 34.98 130.429 21.021 171.29-29.526a129.538 129.538 0 01-11.537-17.131z" fill="#02905d"/><path d="M226.99 179.236a85.76 85.76 0 0114.55-6.528c-41.57-16.478-91.295 1.041-116.129 43.035a103.321 103.321 0 00-6.416 12.789c-4.933 11.818-14.682 21.06-26.774 25.276-28.248 9.851-53.315 29.307-69.819 56.995-36.853 61.828-16.878 142.678 44.563 180.174a133.606 133.606 0 0013.504 7.206C34.407 456.947 22.354 387.106 55.058 332.24c16.504-27.688 41.57-47.144 69.819-56.995 12.092-4.217 21.841-13.458 26.774-25.276a103.321 103.321 0 016.416-12.789c11.847-20.033 29.364-34.474 48.951-42.334a86.132 86.132 0 0119.972-15.61z" fill="#017b4e"/><g><circle cx="35.668" cy="388.171" fill="#026841" r="7.5"/><circle cx="75.712" cy="404.974" fill="#026841" r="7.5"/><circle cx="55.894" cy="435.722" fill="#026841" r="7.5"/><circle cx="90.738" cy="458.664" fill="#026841" r="7.5"/><circle cx="55.618" cy="340.94" fill="#026841" r="7.5"/></g><g><path d="M386.754 256.449a45.353 45.353 0 01-26.387-25.793 103.264 103.264 0 00-6.18-12.907c-26.477-46.714-83.645-64.346-127.69-39.382s-58.286 83.07-31.809 129.784a103.309 103.309 0 007.897 11.931c7.794 10.162 10.955 23.218 8.592 35.804-5.52 29.403-1.126 60.829 14.671 88.926 35.274 62.742 115.337 85.669 178.444 51.051 64.65-35.465 87.609-116.826 51.368-180.767-15.969-28.174-40.743-48.22-68.906-58.647z" fill="#81b823"/><path d="M393.104 472.317c-.438.249-.881.495-1.324.738-50.661 27.791-114.927 9.402-143.259-40.992-12.173-21.652-16.356-47.001-11.78-71.379 3.72-19.814-1.207-40.383-13.516-56.434a77.657 77.657 0 01-5.908-8.927c-19.362-34.161-9.49-76.477 22.006-94.328s72.872-4.582 92.234 29.579a77.446 77.446 0 014.624 9.656c7.439 18.789 22.58 33.591 41.541 40.612 23.361 8.65 43.003 25.369 55.308 47.079 13.953 24.618 17.484 53.195 9.943 80.468-7.54 27.271-25.25 49.975-49.866 63.927l-.003.001z" fill="#d1f19e"/><path d="M280.635 421.477c-12.173-21.652-16.356-47.001-11.78-71.379 3.72-19.814-1.207-40.383-13.516-56.434a77.657 77.657 0 01-5.908-8.927c-18.448-32.549-10.341-72.484 17.708-91.623-9.578.38-19.078 2.929-27.816 7.881-31.496 17.851-41.368 60.167-22.006 94.328a77.657 77.657 0 005.908 8.927c12.31 16.051 17.236 36.62 13.516 56.434-4.577 24.377-.394 49.727 11.78 71.379 27.954 49.722 90.888 68.283 141.223 42.076-42.54 6.705-86.882-13.127-109.109-52.662z" fill="#bbec6c"/><path d="M439.554 324.223c-13.176-23.247-34.21-41.151-59.229-50.414-16.966-6.282-30.515-19.527-37.172-36.339a85.054 85.054 0 00-5.072-10.593c-10.296-18.166-26.562-31.568-45.802-37.738-19.458-6.241-39.579-4.347-56.655 5.332-35.094 19.891-46.233 66.792-24.833 104.551a84.986 84.986 0 006.482 9.793c11.014 14.362 15.423 32.763 12.097 50.486-4.901 26.107-.422 53.253 12.613 76.438 20.744 36.898 59.472 57.77 99.24 57.77 18.391 0 37.011-4.467 54.167-13.878l1.415-.789c26.359-14.94 45.323-39.25 53.397-68.453 8.074-29.205 4.293-59.805-10.648-86.166zm-3.81 82.167c-7.006 25.341-23.462 46.436-46.335 59.4l-1.235.689a97.439 97.439 0 01-46.996 12.041c-34.504-.002-68.119-18.117-86.119-50.134-11.311-20.117-15.198-43.669-10.946-66.319 4.112-21.906-1.332-44.643-14.936-62.381a70.035 70.035 0 01-5.335-8.062c-17.323-30.563-8.719-68.293 19.179-84.105 8.174-4.633 17.271-6.98 26.628-6.98 5.968 0 12.043.955 18.05 2.881 15.642 5.016 28.9 15.973 37.333 30.852a69.99 69.99 0 014.175 8.718c8.222 20.766 24.956 37.125 45.91 44.884 21.704 8.036 39.953 23.572 51.387 43.744 12.966 22.876 16.247 49.43 9.24 74.772z" fill="#8bc727"/><ellipse cx="338.471" cy="375.927" fill="#a44f3e" rx="59.723" ry="64.585" transform="rotate(-29.54 338.53 375.996)"/><path d="M318.561 395.07c-16.565-29.226-9.534-64.929 15.312-82.572-9.359.074-18.696 2.395-27.248 7.242-28.696 16.264-37.7 54.605-20.112 85.636s55.108 43.002 83.804 26.738a55.904 55.904 0 004.8-3.064c-22.043.175-44.21-12.198-56.556-33.98z" fill="#883f2e"/></g></svg><svg viewBox="0 0 512 512" id="olive-oil" xmlns="http://www.w3.org/2000/svg"><path d="M300.065 62.649h76.653l14.339-49.32c1.045-3.596-1.652-7.189-5.397-7.189h-95.002c-3.765 0-6.465 3.63-5.383 7.236z" fill="#ffbd86"/><path d="M300.065 62.649H332.7l-14.79-49.273c-1.082-3.606 1.618-7.236 5.383-7.236h-32.635c-3.765 0-6.466 3.63-5.383 7.236z" fill="#f6a96c"/><path d="M378.753 212.352c7.215-8.503 17.968-13.915 29.967-13.915 21.671 0 39.3 17.63 39.3 39.3 0 11.099-4.632 21.131-12.056 28.284a135.942 135.942 0 0125.047 16.139c10.181-11.973 16.337-27.475 16.337-44.423 0-37.903-30.726-68.629-68.629-68.629-10.746 0-20.912 2.474-29.967 6.877v36.367z" fill="#62dbfb"/><path d="M401.329 253.298c-12.542-2.365-21.576-13.404-21.576-26.167V95.843h-81.325v130.958c0 12.885-9.204 23.987-21.892 26.226-29.401 5.187-55.613 19.927-75.298 40.863a298.915 298.915 0 011.13 25.953c0 21.845-2.269 42.946-6.742 62.717l-.215.95.944.24c11.934 3.033 22.992 9.386 31.979 18.373 12.233 12.233 19.438 28.023 20.287 44.462.847 16.4-4.737 31.482-15.724 42.469a52.761 52.761 0 01-3.901 3.526 118.106 118.106 0 0054.498 13.281h109.331C458.371 505.86 512 452.232 512 386.685c0-66.095-47.882-121.549-110.671-133.387z" fill="#c8effe"/><path d="M201.852 337.462a110.225 110.225 0 0114.377-21.72c16.697-19.662 39.703-32.928 64.782-37.353l25.778.048c.733-.142 1.461-.302 2.198-.432 12.689-2.239 21.892-13.341 21.892-26.226V95.843h-32.451v130.958c0 12.885-9.204 23.987-21.892 26.226-29.401 5.187-55.613 19.927-75.298 40.863a298.915 298.915 0 011.13 25.953c0 5.934-.182 11.807-.516 17.619z" fill="#99e6fc"/><path d="M460.486 316.206c-16.433-19.572-39.137-32.925-63.929-37.6l-115.546-.217c-25.079 4.425-48.086 17.69-64.782 37.353a110.314 110.314 0 00-14.377 21.72c-.894 15.585-2.968 30.697-6.226 45.097l-.215.95.944.24c11.934 3.033 22.992 9.386 31.979 18.373 12.233 12.233 19.438 28.023 20.287 44.462.458 8.862-.978 17.332-4.114 24.986 11.873 5.475 25.079 8.535 38.987 8.535h109.331c51.512 0 93.421-41.908 93.421-93.421-.001-25.664-9.148-50.694-25.76-70.478z" fill="#fac600"/><path d="M244.157 386.685c0-25.885 9.289-51.079 26.156-70.943 16.584-19.53 39.396-32.739 64.278-37.252l-53.58-.101c-25.079 4.425-48.086 17.69-64.782 37.353a110.314 110.314 0 00-14.377 21.72c-.894 15.585-2.968 30.697-6.226 45.097l-.215.95.944.24c11.934 3.033 22.992 9.386 31.979 18.373 12.233 12.233 19.438 28.023 20.287 44.462.458 8.862-.978 17.332-4.114 24.986 11.873 5.475 25.079 8.535 38.987 8.535h54.085c-51.513.001-93.422-41.908-93.422-93.42z" fill="#e8b800"/><g><path d="M387.286 96.843H287.233a26.661 26.661 0 01-21.903-11.459l-10.663-15.362c-2.455-3.536.076-8.373 4.381-8.373h128.238c9.719 0 17.597 7.879 17.597 17.597 0 9.719-7.878 17.597-17.597 17.597z" fill="#99e6fc"/></g><g><path d="M319.133 85.384L308.47 70.022c-2.455-3.536.076-8.373 4.381-8.373h-53.803c-4.305 0-6.835 4.837-4.381 8.373l10.663 15.362a26.662 26.662 0 0021.903 11.459h53.803a26.664 26.664 0 01-21.903-11.459z" fill="#62dbfb"/></g><g><path d="M153.316 388.636c8.147-4.484 17.501-6.883 27.369-6.883 5.272 0 10.544.696 15.696 2.015 4.483-19.443 6.987-41.097 6.987-63.925 0-50.227-12.108-94.78-30.789-122.568-1.258-1.871-4.034-1.871-5.292 0-18.681 27.788-30.789 72.342-30.789 122.568 0 17.503 1.478 34.311 4.184 49.967a258.157 258.157 0 0112.634 18.826z" fill="#09a76d"/><path d="M153.316 388.636a54.577 54.577 0 0111.824-4.795c-4.495-19.461-7.007-41.139-7.007-63.998 0-42.462 8.655-80.867 22.618-108.518-2.553-5.056-5.283-9.755-8.171-14.05-1.258-1.871-4.034-1.871-5.292 0-18.681 27.788-30.789 72.342-30.789 122.568 0 17.503 1.478 34.311 4.184 49.967a258.462 258.462 0 0112.633 18.826z" fill="#02905d"/><path d="M177.434 381.848v-99.179a7.5 7.5 0 00-15 0v101.99a57.492 57.492 0 0115-2.811z" fill="#026841"/></g><g><path d="M76.3 393.31c7.97-3.166 16.77-4.938 26.026-4.938 13.978 0 26.924 4.025 37.513 10.836a52.709 52.709 0 011.562-1.649 52.909 52.909 0 0112.792-9.411c-10.812-17.814-24.933-35.877-41.952-52.896-35.516-35.516-75.581-58.458-108.44-64.898-2.213-.434-4.176 1.529-3.742 3.742 6.44 32.858 29.383 72.924 64.898 108.44A308.524 308.524 0 0076.3 393.31z" fill="#09a76d"/><path d="M76.3 393.31c7.97-3.166 16.77-4.938 26.026-4.938 1.898 0 3.772.089 5.629.234a302.209 302.209 0 01-24.678-22.134c-29.333-29.333-50.079-61.767-60.044-90.684-6.683-2.388-13.187-4.211-19.43-5.434-2.213-.434-4.176 1.529-3.742 3.742 6.44 32.858 29.383 72.924 64.898 108.44A306.883 306.883 0 0076.3 393.31z" fill="#02905d"/><path d="M107.688 388.588c11.54.857 22.229 4.444 31.265 10.052l-71.335-71.335a7.5 7.5 0 00-10.606 0 7.5 7.5 0 000 10.606z" fill="#026841"/></g><g><path d="M145.964 484.491c-12.233-12.233-19.438-28.023-20.287-44.462-.825-15.966 4.462-30.672 14.879-41.577-10.772-6.965-23.964-11.079-38.23-11.079-36.283 0-65.696 26.524-65.696 59.244s29.413 59.244 65.696 59.244c18.533 0 35.262-6.931 47.206-18.063a72.127 72.127 0 01-3.568-3.307z" fill="#8bc727"/><path d="M68.978 446.617c0-27.686 21.061-50.931 49.522-57.43a72.592 72.592 0 00-16.174-1.814c-36.283 0-65.696 26.524-65.696 59.244s29.413 59.244 65.696 59.244a72.65 72.65 0 0016.174-1.814c-28.461-6.499-49.522-29.745-49.522-57.43z" fill="#81b823"/><path d="M63.613 461.155a7.5 7.5 0 01-7.5-7.5v-14.078a7.5 7.5 0 0115 0v14.078a7.5 7.5 0 01-7.5 7.5z" fill="#bbec6c"/><g><ellipse cx="187.149" cy="443.307" fill="#8bc727" rx="59.244" ry="65.696" transform="rotate(-45 187.082 443.375)"/><path d="M177.309 485.198c-25.656-25.656-27.699-65.21-4.562-88.346 6.878-6.878 15.212-11.512 24.195-13.981-20.192-5.245-41.537-.729-56.247 13.981-23.136 23.136-21.093 62.69 4.562 88.346 18.029 18.029 42.916 24.379 64.151 18.544-11.566-3.004-22.755-9.2-32.099-18.544z" fill="#81b823"/><path d="M154.797 428.409a7.474 7.474 0 01-5.303-2.197 7.5 7.5 0 010-10.606l9.955-9.955a7.5 7.5 0 0110.606 0 7.5 7.5 0 010 10.606l-9.955 9.955a7.474 7.474 0 01-5.303 2.197z" fill="#bbec6c"/></g></g></svg></svg>